# File created by Blade
# Date/Time:  Thu Jan 22 18:25:17 2015
#---------------------------------------------------------
:version 1.10
:name HOM
:units
  mass 1.0
  length 1.000000
  angle deg
:documentation
     Acclaim Skeleton File
:root
   axis xyz
   order TX TY TZ RX RY RZ
   position 0.000000 0.000000 0.000000
   orientation 0 0 0
:bonedata
   begin
      id 1
      name RightUpLeg_dum
      direction -1.000000 0.000000 0.000000
      length 4.478084
      axis 0.0 0.0 0.0 xyz
   end
   begin
      id 2
      name LeftUpLeg_dum
      direction 1.000000 0.000000 0.000000
      length 4.478084
      axis 0.0 0.0 0.0 xyz
   end
   begin
      id 3
      name Spine_dum
      direction 0.000000 1.000000 0.000000
      length 6.068208
      axis 0.0 0.0 0.0 xyz
   end
   begin
      id 4
      name RightUpLeg
      direction 0.000000 -1.000000 0.000000
      length 16.405774
      axis 0.0 0.0 0.0 xyz
      dof rx ry rz
   end
   begin
      id 5
      name RightLeg
      direction 0.000000 -1.000000 0.000000
      length 14.644143
      axis 0.0 0.0 0.0 xyz
      dof rx ry rz
   end
   begin
      id 6
      name RightFoot
      direction 0.000000 -0.258819 0.965926
      length 5.806150
      axis 15.0 0.0 0.0 xyz
      dof rx ry rz
   end
   begin
      id 7
      name RightToeBase
      direction 0.000000 0.000000 1.000000
      length 2.952750
      axis 0.0 0.0 0.0 xyz
      dof rx ry rz
   end
   begin
      id 8
      name LeftUpLeg
      direction 0.000000 -1.000000 0.000000
      length 16.405774
      axis 0.0 0.0 0.0 xyz
      dof rx ry rz
   end
   begin
      id 9
      name LeftLeg
      direction 0.000000 -1.000000 0.000000
      length 14.644143
      axis 0.0 0.0 0.0 xyz
      dof rx ry rz
   end
   begin
      id 10
      name LeftFoot
      direction 0.000000 -0.258819 0.965926
      length 5.806150
      axis 15.0 0.0 0.0 xyz
      dof rx ry rz
   end
   begin
      id 11
      name LeftToeBase
      direction 0.000000 0.000000 1.000000
      length 2.952750
      axis 0.0 0.0 0.0 xyz
      dof rx ry rz
   end
   begin
      id 12
      name Spine
      direction 0.000000 1.000000 0.000000
      length 0.000000
      axis 0.0 0.0 0.0 xyz
      dof rx ry rz
   end
   begin
      id 13
      name Spine_dum1
      direction 0.000000 1.000000 0.000000
      length 10.013923
      axis 0.0 0.0 0.0 xyz
   end
   begin
      id 14
      name Spine_dum2
      direction 0.000000 1.000000 0.000000
      length 10.013923
      axis 0.0 0.0 0.0 xyz
   end
   begin
      id 15
      name Spine_dum3
      direction 0.000000 1.000000 0.000000
      length 15.777476
      axis 0.0 0.0 0.0 xyz
   end
   begin
      id 16
      name RightShoulder
      direction -1.000000 0.000000 0.000000
      length 7.190220
      axis 0.0 0.0 90.0 xyz
      dof rx ry rz
   end
   begin
      id 17
      name RightArm
      direction -1.000000 0.000000 0.000000
      length 10.177469
      axis 0.0 0.0 90.0 xyz
      dof rx ry rz
   end
   begin
      id 18
      name RightForeArm
      direction -1.000000 0.000000 0.000000
      length 8.392114
      axis 0.0 0.0 90.0 xyz
      dof ry rz rx
   end
   begin
      id 19
      name RightHand
      direction -1.000000 0.000000 0.000000
      length 0.000000
      axis 0.0 0.0 90.0 xyz
      dof rx ry rz
   end
   begin
      id 20
      name RightHand_dum1
      direction -1.000000 0.000000 0.000000
      length 3.937000
      axis 0.0 0.0 90.0 xyz
   end
   begin
      id 21
      name RightHand_dum2
      direction 0.000000 0.000000 0.000000
      length 0.000000
      axis 0.0 0.0 90.0 xyz
   end
   begin
      id 22
      name RightHandThumb1
      direction 0.000000 0.000000 1.000000
      length 3.937000
      axis 0.0 0.0 90.0 xyz
      dof rx rz ry
   end
   begin
      id 23
      name LeftShoulder
      direction 1.000000 0.000000 0.000000
      length 7.190220
      axis 0.0 0.0 -90.0 xyz
      dof rx ry rz
   end
   begin
      id 24
      name LeftArm
      direction 1.000000 0.000000 0.000000
      length 10.177469
      axis 0.0 0.0 -90.0 xyz
      dof rx ry rz
   end
   begin
      id 25
      name LeftForeArm
      direction 1.000000 0.000000 0.000000
      length 8.392114
      axis 0.0 0.0 -90.0 xyz
      dof ry rz rx
   end
   begin
      id 26
      name LeftHand
      direction 1.000000 0.000000 0.000000
      length 0.000000
      axis 0.0 0.0 -90.0 xyz
      dof rx ry rz
   end
   begin
      id 27
      name LeftHand_dum1
      direction 1.000000 0.000000 0.000000
      length 3.937000
      axis 0.0 0.0 -90.0 xyz
   end
   begin
      id 28
      name LeftHand_dum2
      direction 0.000000 0.000000 0.000000
      length 0.000000
      axis 0.0 0.0 -90.0 xyz
   end
   begin
      id 29
      name LeftHandThumb1
      direction 0.000000 0.000000 1.000000
      length 3.937000
      axis 0.0 0.0 -90.0 xyz
      dof rx rz ry
   end
   begin
      id 30
      name Head
      direction 0.000000 1.000000 0.000000
      length 4.527550
      axis 0.0 0.0 0.0 xyz
      dof rx ry rz
   end
:hierarchy
   begin
      root RightUpLeg_dum LeftUpLeg_dum Spine_dum
      RightUpLeg_dum RightUpLeg
      LeftUpLeg_dum LeftUpLeg
      Spine_dum Spine
      RightUpLeg RightLeg
      RightLeg RightFoot
      RightFoot RightToeBase
      LeftUpLeg LeftLeg
      LeftLeg LeftFoot
      LeftFoot LeftToeBase
      Spine Spine_dum1 Spine_dum2 Spine_dum3
      Spine_dum1 RightShoulder
      Spine_dum2 LeftShoulder
      Spine_dum3 Head
      RightShoulder RightArm
      RightArm RightForeArm
      RightForeArm RightHand
      RightHand RightHand_dum1 RightHand_dum2
      RightHand_dum2 RightHandThumb1
      LeftShoulder LeftArm
      LeftArm LeftForeArm
      LeftForeArm LeftHand
      LeftHand LeftHand_dum1 LeftHand_dum2
      LeftHand_dum2 LeftHandThumb1
   end

# File created by Blade
# Date/Time:  Thu Jan 22 18:25:10 2015
# Frame Rate: 120.000 fps
#------------------------------------------------------
:FULLY-SPECIFIED
:DEGREES
1
root -2.920392 33.103352 -0.395269 9.622401 -2.895256 2.439316
RightUpLeg -4.522782 -3.144523 -1.603111
RightLeg 2.539354 -0.000000 -0.000000
RightFoot -13.428717 -4.493949 1.766143
RightToeBase 4.979223 -0.000000 -0.000000
LeftUpLeg -3.462980 4.472507 0.616552
LeftLeg 1.952198 -0.000000 -0.000000
LeftFoot -11.940935 3.085081 -10.633276
LeftToeBase 8.837628 -0.000000 -0.000000
Spine -11.523200 -1.903880 -0.115797
RightShoulder -19.386759 -17.242372 -25.686727
RightArm 19.627095 30.234634 38.472733
RightForeArm -10.398111 -0.000000 11.221862
RightHand 7.019568 -0.000000 7.070864
RightHandThumb1 -24.326973 -0.000000 -32.862282
LeftShoulder -24.410960 8.932442 29.184578
LeftArm 13.494888 -32.991280 -36.017607
LeftForeArm 26.264953 -0.000000 4.310270
LeftHand -6.737080 0.000000 -7.439114
LeftHandThumb1 -26.253704 0.000000 33.147579
Head 1.786357 -2.992621 -2.192717
2
root -2.918021 33.105432 -0.395402 9.579482 -2.836745 2.418855
RightUpLeg -4.429503 -3.341538 -1.577349
RightLeg 2.435471 -0.000000 -0.000000
RightFoot -13.314529 -4.329309 1.807759
RightToeBase 5.020755 -0.000000 -0.000000
LeftUpLeg -3.504681 4.630372 0.627452
LeftLeg 2.096118 -0.000000 -0.000000
LeftFoot -11.953344 2.910241 -10.524997
LeftToeBase 8.822127 -0.000000 -0.000000
Spine -11.446863 -1.885469 -0.146709
RightShoulder -19.539113 -17.303825 -25.596993
RightArm 19.715232 30.194101 38.559607
RightForeArm -10.500042 0.000000 11.179051
RightHand 6.914731 -0.000000 7.189670
RightHandThumb1 -24.326973 -0.000000 -32.862282
LeftShoulder -24.409370 8.894226 29.240688
LeftArm 13.385223 -33.049269 -36.010265
LeftForeArm 26.277224 -0.000000 4.469026
LeftHand -6.637236 0.000000 -7.552225
LeftHandThumb1 -26.253704 0.000000 33.147579
Head 1.662635 -2.884026 -2.075918
3
root -2.913965 33.106029 -0.397054 9.547196 -2.819913 2.404020
RightUpLeg -4.361076 -3.515581 -1.563905
RightLeg 2.342775 -0.000000 -0.000000
RightFoot -13.224007 -4.159389 1.858681
RightToeBase 5.168275 -0.000000 -0.000000
LeftUpLeg -3.531237 4.828161 0.623209
LeftLeg 2.195817 -0.000000 -0.000000
LeftFoot -11.949313 2.704847 -10.509813
LeftToeBase 8.771137 -0.000000 -0.000000
Spine -11.376572 -1.873218 -0.180486
RightShoulder -19.663849 -17.407244 -25.492888
RightArm 19.843824 30.186969 38.642181
RightForeArm -10.551806 -0.000000 11.140582
RightHand 6.863612 -0.000000 7.303612
RightHandThumb1 -24.326973 -0.000000 -32.862282
LeftShoulder -24.453225 8.886469 29.282649
LeftArm 13.288170 -33.094019 -35.978065
LeftForeArm 26.293686 -0.000000 4.594370
LeftHand -6.430140 -0.000000 -7.702350
LeftHandThumb1 -26.253704 0.000000 33.147579
Head 1.509985 -2.727472 -1.966820
4
root -2.910631 33.105399 -0.398589 9.517040 -2.841254 2.389353
RightUpLeg -4.297197 -3.655741 -1.556414
RightLeg 2.247266 -0.000000 -0.000000
RightFoot -13.135985 -3.986870 1.906570
RightToeBase 5.304186 -0.000000 -0.000000
LeftUpLeg -3.524589 5.022996 0.623011
LeftLeg 2.240889 -0.000000 -0.000000
LeftFoot -11.943325 2.544728 -10.403467
LeftToeBase 8.750214 -0.000000 -0.000000
Spine -11.304921 -1.838617 -0.223509
RightShoulder -19.743394 -17.454408 -25.428210
RightArm 19.882817 30.164974 38.706368
RightForeArm -10.650658 -0.000000 11.133765
RightHand 6.789178 0.000000 7.293065
RightHandThumb1 -24.326973 -0.000000 -32.862282
LeftShoulder -24.502871 8.894626 29.336943
LeftArm 13.201962 -33.138818 -35.953955
LeftForeArm 26.345911 -0.000000 4.679710
LeftHand -6.335202 -0.000000 -7.743610
LeftHandThumb1 -26.253704 0.000000 33.147579
Head 1.332529 -2.540382 -1.865204
5
root -2.906207 33.104519 -0.399555 9.481425 -2.895829 2.379281
RightUpLeg -4.234757 -3.762581 -1.560297
RightLeg 2.159031 -0.000000 -0.000000
RightFoot -13.069042 -3.829437 1.957899
RightToeBase 5.491374 -0.000000 -0.000000
LeftUpLeg -3.487220 5.239126 0.613845
LeftLeg 2.250627 -0.000000 -0.000000
LeftFoot -11.952510 2.391283 -10.268898
LeftToeBase 8.867166 -0.000000 -0.000000
Spine -11.224903 -1.822327 -0.260923
RightShoulder -19.773938 -17.504049 -25.339243
RightArm 19.918628 30.138070 38.697643
RightForeArm -10.625865 -0.000000 11.125052
RightHand 6.808266 0.000000 7.311045
RightHandThumb1 -24.326973 -0.000000 -32.862282
LeftShoulder -24.616207 8.976555 29.344447
LeftArm 13.198506 -33.235849 -35.952665
LeftForeArm 26.467143 0.000000 4.728700
LeftHand -6.266985 0.000000 -7.737802
LeftHandThumb1 -26.253704 0.000000 33.147579
Head 1.150075 -2.312363 -1.781196
6
root -2.902926 33.103183 -0.400188 9.460870 -2.978275 2.369507
RightUpLeg -4.189480 -3.823336 -1.567701
RightLeg 2.069816 -0.000000 -0.000000
RightFoot -12.997773 -3.676561 2.041210
RightToeBase 5.552515 -0.000000 -0.000000
LeftUpLeg -3.440313 5.444398 0.610338
LeftLeg 2.213778 -0.000000 -0.000000
LeftFoot -11.905980 2.203865 -10.308044
LeftToeBase 8.788952 -0.000000 -0.000000
Spine -11.163304 -1.780171 -0.303453
RightShoulder -19.827513 -17.552057 -25.250879
RightArm 19.972923 30.092547 38.698082
RightForeArm -10.599551 -0.000000 11.125572
RightHand 6.937151 -0.000000 7.367771
RightHandThumb1 -24.326973 -0.000000 -32.862282
LeftShoulder -24.721464 8.992684 29.346391
LeftArm 13.145279 -33.234714 -35.847907
LeftForeArm 26.569978 -0.000000 4.740401
LeftHand -6.184130 -0.000000 -7.623736
LeftHandThumb1 -26.253704 0.000000 33.147579
Head 0.967565 -2.112384 -1.689755
7
root -2.901171 33.101380 -0.401029 9.454167 -3.074140 2.352443
RightUpLeg -4.151863 -3.876249 -1.567819
RightLeg 1.965261 -0.000000 -0.000000
RightFoot -12.931638 -3.517860 2.067373
RightToeBase 5.669299 -0.000000 -0.000000
LeftUpLeg -3.392188 5.637831 0.613946
LeftLeg 2.157598 -0.000000 -0.000000
LeftFoot -11.882003 2.068430 -10.267116
LeftToeBase 8.813788 -0.000000 -0.000000
Spine -11.129829 -1.702374 -0.341658
RightShoulder -19.875956 -17.548671 -25.212356
RightArm 19.961568 30.002235 38.691498
RightForeArm -10.567823 -0.000000 11.171145
RightHand 6.964268 0.000000 7.316514
RightHandThumb1 -24.326973 -0.000000 -32.862282
LeftShoulder -24.778690 8.979542 29.369747
LeftArm 13.047942 -33.246649 -35.723724
LeftForeArm 26.675389 0.000000 4.755041
LeftHand -6.039230 0.000000 -7.620845
LeftHandThumb1 -26.253704 0.000000 33.147579
Head 0.796066 -1.879991 -1.597689
8
root -2.899592 33.099360 -0.401813 9.455764 -3.183399 2.342643
RightUpLeg -4.129959 -3.930489 -1.576588
RightLeg 1.872178 -0.000000 -0.000000
RightFoot -12.859637 -3.327716 2.125224
RightToeBase 5.676947 -0.000000 -0.000000
LeftUpLeg -3.342196 5.809102 0.611905
LeftLeg 2.086823 -0.000000 -0.000000
LeftFoot -11.853549 1.945511 -10.248735
LeftToeBase 8.804571 -0.000000 -0.000000
Spine -11.105650 -1.631286 -0.391853
RightShoulder -19.943815 -17.588651 -25.143526
RightArm 20.041172 29.972362 38.724132
RightForeArm -10.623418 -0.000000 11.200414
RightHand 6.973917 -0.000000 7.209666
RightHandThumb1 -24.326973 -0.000000 -32.862282
LeftShoulder -24.876234 9.018905 29.398040
LeftArm 13.024686 -33.231919 -35.650548
LeftForeArm 26.711523 -0.000000 4.756399
LeftHand -6.003813 0.000000 -7.648016
LeftHandThumb1 -26.253704 0.000000 33.147579
Head 0.630101 -1.646042 -1.503413
9
root -2.899871 33.097970 -0.402214 9.474928 -3.283280 2.328017
RightUpLeg -4.117136 -3.982103 -1.572330
RightLeg 1.764893 -0.000000 -0.000000
RightFoot -12.794405 -3.149132 2.140852
RightToeBase 5.793408 -0.000000 -0.000000
LeftUpLeg -3.311149 5.963691 0.615386
LeftLeg 2.015807 -0.000000 -0.000000
LeftFoot -11.826995 1.837960 -10.256126
LeftToeBase 8.816333 -0.000000 -0.000000
Spine -11.113486 -1.593936 -0.432551
RightShoulder -19.994321 -17.623839 -25.069135
RightArm 20.136083 29.944573 38.740064
RightForeArm -10.625811 0.000000 11.228975
RightHand 7.011444 0.000000 7.093944
RightHandThumb1 -24.326973 -0.000000 -32.862282
LeftShoulder -24.990761 9.061383 29.422856
LeftArm 13.015420 -33.246695 -35.568583
LeftForeArm 26.830729 -0.000000 4.728297
LeftHand -6.014689 0.000000 -7.542245
LeftHandThumb1 -26.253704 0.000000 33.147579
Head 0.503666 -1.425932 -1.391464
10
root -2.900078 33.096727 -0.401508 9.500765 -3.376161 2.314444
RightUpLeg -4.106223 -3.991720 -1.571198
RightLeg 1.657817 -0.000000 -0.000000
RightFoot -12.724440 -3.028452 2.167178
RightToeBase 5.814714 -0.000000 -0.000000
LeftUpLeg -3.281803 6.060879 0.620906
LeftLeg 1.939087 -0.000000 -0.000000
LeftFoot -11.805125 1.785645 -10.217540
LeftToeBase 8.794751 -0.000000 -0.000000
Spine -11.136475 -1.557726 -0.467701
RightShoulder -20.046287 -17.656396 -25.010532
RightArm 20.208949 29.898101 38.741536
RightForeArm -10.696382 -0.000000 11.286063
RightHand 6.974480 -0.000000 6.908085
RightHandThumb1 -24.326973 -0.000000 -32.862282
LeftShoulder -25.102081 9.111143 29.431733
LeftArm 13.037936 -33.315842 -35.489677
LeftForeArm 26.975377 -0.000000 4.660316
LeftHand -5.881061 -0.000000 -7.557869
LeftHandThumb1 -26.253704 0.000000 33.147579
Head 0.387659 -1.216615 -1.308550
11
root -2.903984 33.095887 -0.402991 9.542255 -3.442829 2.297737
RightUpLeg -4.118072 -3.975629 -1.558013
RightLeg 1.574363 -0.000000 -0.000000
RightFoot -12.665470 -2.977790 2.227114
RightToeBase 5.819341 -0.000000 -0.000000
LeftUpLeg -3.289732 6.099970 0.636674
LeftLeg 1.891067 -0.000000 -0.000000
LeftFoot -11.797855 1.767363 -10.226032
LeftToeBase 8.776112 -0.000000 -0.000000
Spine -11.185011 -1.558148 -0.510771
RightShoulder -20.075613 -17.716977 -24.927886
RightArm 20.281027 29.875062 38.728920
RightForeArm -10.629606 -0.000000 11.359935
RightHand 7.024942 -0.000000 7.098269
RightHandThumb1 -24.326973 -0.000000 -32.862282
LeftShoulder -25.190133 9.141709 29.472502
LeftArm 13.014031 -33.356663 -35.391576
LeftForeArm 27.048353 0.000000 4.634493
LeftHand -5.917566 0.000000 -7.532360
LeftHandThumb1 -26.253704 0.000000 33.147579
Head 0.301452 -0.994938 -1.192378
12
root -2.906303 33.095337 -0.400765 9.572717 -3.510491 2.287796
RightUpLeg -4.113708 -3.937284 -1.553263
RightLeg 1.486291 -0.000000 -0.000000
RightFoot -12.612335 -2.941906 2.241747
RightToeBase 5.844041 -0.000000 -0.000000
LeftUpLeg -3.282453 6.128591 0.641100
LeftLeg 1.847941 -0.000000 -0.000000
LeftFoot -11.794376 1.785369 -10.227605
LeftToeBase 8.810025 -0.000000 -0.000000
Spine -11.231973 -1.556908 -0.551812
RightShoulder -20.105622 -17.762607 -24.868784
RightArm 20.353408 29.826383 38.725650
RightForeArm -10.622142 -0.000000 11.416249
RightHand 7.080955 -0.000000 7.016269
RightHandThumb1 -24.326973 -0.000000 -32.862282
LeftShoulder -25.304595 9.161688 29.497764
LeftArm 13.050904 -33.347531 -35.295999
LeftForeArm 27.037997 0.000000 4.567892
LeftHand -5.986296 -0.000000 -7.576667
LeftHandThumb1 -26.253704 0.000000 33.147579
Head 0.237380 -0.769269 -1.087013
13
root -2.908757 33.095331 -0.395164 9.599929 -3.569164 2.275286
RightUpLeg -4.097245 -3.898478 -1.549102
RightLeg 1.395964 -0.000000 -0.000000
RightFoot -12.542266 -2.901637 2.267780
RightToeBase 5.809487 -0.000000 -0.000000
LeftUpLeg -3.264912 6.095615 0.649686
LeftLeg 1.801915 -0.000000 -0.000000
LeftFoot -11.818488 1.875616 -10.139077
LeftToeBase 8.929259 -0.000000 -0.000000
Spine -11.292818 -1.556545 -0.585724
RightShoulder -20.128478 -17.803498 -24.820012
RightArm 20.408134 29.822638 38.726227
RightForeArm -10.748435 -0.000000 11.502533
RightHand 6.934162 -0.000000 6.851263
RightHandThumb1 -24.326973 -0.000000 -32.862282
LeftShoulder -25.381390 9.157949 29.531218
LeftArm 13.043360 -33.368482 -35.170621
LeftForeArm 27.021646 -0.000000 4.475601
LeftHand -5.887713 0.000000 -7.555146
LeftHandThumb1 -26.253704 0.000000 33.147579
Head 0.208057 -0.585190 -0.987663
